<?xml version="1.0" encoding="utf-8"?>
<!-- Generator: Adobe Illustrator 28.3.0, SVG Export Plug-In . SVG Version: 6.00 Build 0)  -->
<svg version="1.1" id="Layer_1" xmlns="http://www.w3.org/2000/svg" xmlns:xlink="http://www.w3.org/1999/xlink" x="0px" y="0px"
	 viewBox="0 0 200 200" style="enable-background:new 0 0 200 200;" xml:space="preserve">
<style type="text/css">
	.st0{fill:#0078FF;}
</style>
<path class="st0" d="M87.5,181.1c-47.8,0-86.9-38.9-86.9-86.9c0-47.8,38.9-86.7,86.9-86.7s86.9,38.9,86.9,86.9
	c0,17.5-5.2,34.4-15,48.8c-0.9,1.4-3,1.7-4.4,0.8s-1.7-3-0.8-4.4c9.1-13.4,13.9-29.1,13.9-45.3c0-44.4-36.1-80.6-80.6-80.6
	S6.9,49.8,6.9,94.2s36.1,80.6,80.6,80.6c22.5,0,44.1-9.5,59.4-26.1c1.1-1.3,3.1-1.4,4.4-0.2c1.3,1.1,1.4,3.1,0.2,4.4
	C135,170.8,111.7,181.1,87.5,181.1z"/>
<path class="st0" d="M87.5,179.5c-22.5,0-40.8-38.3-40.8-85.3C46.6,47.2,65,9.1,87.5,9.1c21.7,0,39.2,33.9,40.6,79.1
	c0,0.5-0.2,0.8-0.5,1.1c-0.3,0.3-0.6,0.5-1.1,0.5c-8,0-15.6,3.3-21.2,8.9c-11.9,11.9-11.9,31.1,0,43c3.3,3.3,7.3,5.8,11.9,7.3
	c0.5,0.2,0.8,0.5,0.9,0.8c0.2,0.5,0.2,0.8,0,1.2C110.3,169.1,99.2,179.5,87.5,179.5L87.5,179.5z M87.5,12.2
	c-20.8,0-37.7,36.9-37.7,82.2s16.9,82.2,37.7,82.2c10.2,0,20-9.2,27-25.3c-4.4-1.7-8.1-4.2-11.4-7.5c-13.1-13.1-13.1-34.4,0-47.3
	c5.9-5.9,13.6-9.4,21.9-9.7C123.1,44.7,106.7,12.2,87.5,12.2z M153.6,156.9c-0.5,0-0.8-0.2-1.1-0.5l-8.9-8.9
	c-0.3-0.3-0.5-0.8-0.5-1.2s0.3-0.9,0.6-1.1c1.6-1.1,3.1-2.3,4.5-3.6c1.2-1.2,2.5-2.8,3.6-4.5c0.3-0.3,0.6-0.6,1.1-0.6
	s0.9,0.2,1.2,0.5l8.9,8.9c0.6,0.6,0.6,1.6,0,2.2l-8.6,8.6C154.4,156.7,154.1,156.9,153.6,156.9L153.6,156.9z M147,146.6l6.6,6.6
	l6.4-6.4l-6.6-6.6C151.6,142.6,149.5,144.7,147,146.6z"/>
<path class="st0" d="M185.6,192.5c-3.3,0-6.4-1.3-8.9-3.8l-28.3-28.3c-1.2-1.3-1.2-3.1,0-4.4l14.5-14.5c1.3-1.2,3.1-1.2,4.4,0
	l28.3,28.3c4.8,4.8,4.8,13,0,17.8l-1.1,1.1C192.2,191.4,188.9,192.5,185.6,192.5L185.6,192.5z M155,158.3l26.1,26.1
	c2.5,2.5,6.6,2.5,8.9,0l1.1-1.1c2.5-2.5,2.5-6.6,0-8.9L165,148.3L155,158.3L155,158.3z M126.7,153.4c-8.6,0-17.2-3.3-23.8-9.8
	c-13.1-13.1-13.1-34.4,0-47.3c13.1-13.1,34.4-13.1,47.3,0c13.1,13.1,13.1,34.4,0,47.3C143.9,150.2,135.3,153.4,126.7,153.4z
	 M126.7,89.7c-7.8,0-15.6,3-21.4,8.9c-11.9,11.9-11.9,31.1,0,43s31.1,11.9,43,0s11.9-31.1,0-43C142.3,92.7,134.5,89.7,126.7,89.7z
	 M159.5,53.9H14.1c-0.9,0-1.6-0.6-1.6-1.6s0.6-1.6,1.6-1.6h145.5c0.9,0,1.6,0.6,1.6,1.6S160.5,53.9,159.5,53.9z"/>
<path class="st0" d="M87.5,179.5c-0.9,0-1.6-0.6-1.6-1.6V10.6c0-0.9,0.6-1.6,1.6-1.6s1.6,0.6,1.6,1.6V178
	C89.1,178.8,88.3,179.5,87.5,179.5z M171.1,95.8h-25.5c-0.9,0-1.6-0.6-1.6-1.6s0.6-1.6,1.6-1.6h25.5c0.9,0,1.6,0.6,1.6,1.6
	S172,95.8,171.1,95.8z"/>
<path class="st0" d="M108,95.8H3.8c-0.9,0-1.6-0.6-1.6-1.6s0.6-1.6,1.6-1.6H108c0.9,0,1.6,0.6,1.6,1.6S108.8,95.8,108,95.8z
	 M159.5,137.7h-5.3c-0.9,0-1.6-0.6-1.6-1.6s0.6-1.6,1.6-1.6h5.3c0.9,0,1.6,0.6,1.6,1.6C161.1,136.9,160.5,137.7,159.5,137.7z
	 M99.2,137.7H14.1c-0.9,0-1.6-0.6-1.6-1.6s0.6-1.6,1.6-1.6h85.2c0.9,0,1.6,0.6,1.6,1.6C100.8,136.9,100.2,137.7,99.2,137.7z"/>
</svg>
