<?xml version="1.0" encoding="utf-8"?>
<!-- Generator: Adobe Illustrator 28.3.0, SVG Export Plug-In . SVG Version: 6.00 Build 0)  -->
<svg version="1.1" id="Layer_1" xmlns="http://www.w3.org/2000/svg" xmlns:xlink="http://www.w3.org/1999/xlink" x="0px" y="0px"
	 viewBox="0 0 200 200" style="enable-background:new 0 0 200 200;" xml:space="preserve">
<style type="text/css">
	.st0{fill:#0078FF;}
</style>
<path class="st0" d="M196.1,142.7H3.9c-1.7,0-3.1-1.4-3.1-3.1v-120c0-1.7,1.4-3.1,3.1-3.1h192.2c1.7,0,3.1,1.4,3.1,3.1v120
	C199.2,141.2,197.8,142.7,196.1,142.7z M7,136.4H193V22.7H7V136.4z"/>
<path class="st0" d="M113.9,22.7h-28c-1.7,0-3.1-1.4-3.1-3.1V3.9c0-1.7,1.4-3.1,3.1-3.1h28.1c1.7,0,3.1,1.4,3.1,3.1v15.6
	C117,21.2,115.6,22.7,113.9,22.7z M89.1,16.4h21.9V7H89.1V16.4z M110,179.2H89.8c-1.7,0-3.1-1.4-3.1-3.1v-36.6
	c0-1.7,1.4-3.1,3.1-3.1H110c1.7,0,3.1,1.4,3.1,3.1v36.6C113.1,177.8,111.7,179.2,110,179.2L110,179.2z M93,173h13.9v-30.3H93V173
	L93,173z M155.9,199.2h-20.2c-1.4,0-2.7-0.9-3-2.3l-14.1-56.6c-0.2-0.9,0-1.9,0.6-2.7c0.6-0.8,1.6-1.3,2.5-1.3H142
	c1.4,0,2.7,0.9,3,2.3l14.1,56.6c0.2,0.9,0,1.9-0.6,2.7S156.9,199.2,155.9,199.2z M138.3,193H152l-12.5-50.3h-13.8L138.3,193z
	 M64.2,199.2H44.1c-0.9,0-1.9-0.5-2.5-1.2s-0.8-1.7-0.6-2.7L55,138.8c0.3-1.4,1.6-2.3,3-2.3h20.2c0.9,0,1.9,0.5,2.5,1.3
	s0.8,1.7,0.6,2.7l-14.1,56.6C66.9,198.3,65.6,199.2,64.2,199.2z M48,193h13.8l12.5-50.3H60.5C60.5,142.7,48,193,48,193z M57.2,115
	c-17.3,0-31.6-14.1-31.6-31.6c0-17.3,14.1-31.6,31.6-31.6c0.9,0,1.6,0.6,1.6,1.6v28.4h28.4c0.9,0,1.6,0.6,1.6,1.6
	C88.6,100.9,74.5,115,57.2,115z M55.6,55.3c-14.8,0.8-26.9,13.3-26.9,28.3c0,15.6,12.7,28.4,28.4,28.4c15.2,0,27.5-11.9,28.3-26.9
	H57.2c-0.9,0-1.6-0.6-1.6-1.6C55.6,83.6,55.6,55.3,55.6,55.3z"/>
<path class="st0" d="M102,70.2H72.2c-0.9,0-1.6-0.6-1.6-1.6v-30c0-0.9,0.6-1.6,1.6-1.6c17.3,0,31.6,14.1,31.6,31.6
	C103.6,69.4,103,70.2,102,70.2z M73.8,67h26.7c-0.8-14.4-12.3-25.9-26.7-26.7V67z M172.2,37.7h-17.7c-0.9,0-1.6-0.6-1.6-1.6
	s0.6-1.6,1.6-1.6h17.7c0.9,0,1.6,0.6,1.6,1.6C173.8,36.9,173,37.7,172.2,37.7L172.2,37.7z M172.2,55h-17.7c-0.9,0-1.6-0.6-1.6-1.6
	c0-0.9,0.6-1.6,1.6-1.6h17.7c0.9,0,1.6,0.6,1.6,1.6C173.8,54.4,173,55,172.2,55L172.2,55z M172.2,72.5h-17.7c-0.9,0-1.6-0.6-1.6-1.6
	c0-0.9,0.6-1.6,1.6-1.6h17.7c0.9,0,1.6,0.6,1.6,1.6C173.8,71.7,173,72.5,172.2,72.5L172.2,72.5z M114.7,127.8
	c-0.9,0-1.6-0.6-1.6-1.6V99.1c0-0.9,0.6-1.6,1.6-1.6c0.9,0,1.6,0.6,1.6,1.6v27.2C116.2,127,115.5,127.8,114.7,127.8z M131.2,127.8
	c-0.9,0-1.6-0.6-1.6-1.6v-19.5c0-0.9,0.6-1.6,1.6-1.6s1.6,0.6,1.6,1.6v19.5C132.8,127,132,127.8,131.2,127.8z M147.8,127.8
	c-0.9,0-1.6-0.6-1.6-1.6V86.7c0-0.9,0.6-1.6,1.6-1.6s1.6,0.6,1.6,1.6v39.5C149.4,127,148.8,127.8,147.8,127.8z M164.4,127.8
	c-0.9,0-1.6-0.6-1.6-1.6v-25.8c0-0.9,0.6-1.6,1.6-1.6s1.6,0.6,1.6,1.6v25.8C165.9,127,165.3,127.8,164.4,127.8z"/>
</svg>
