<?xml version="1.0" encoding="utf-8"?>
<!-- Generator: Adobe Illustrator 28.3.0, SVG Export Plug-In . SVG Version: 6.00 Build 0)  -->
<svg version="1.1" id="Layer_1" xmlns="http://www.w3.org/2000/svg" xmlns:xlink="http://www.w3.org/1999/xlink" x="0px" y="0px"
	 viewBox="0 0 200 200" style="enable-background:new 0 0 200 200;" xml:space="preserve">
<style type="text/css">
	.st0{fill:#0078FF;}
</style>
<path class="st0" d="M196.1,193.3H3.9c-1.7,0-3.1-1.4-3.1-3.1V94.1c0-1.7,1.4-3.1,3.1-3.1h192.2c1.7,0,3.1,1.4,3.1,3.1v96.1
	C199.2,191.9,197.8,193.3,196.1,193.3z M7,187H193V97.2H7V187z"/>
<path class="st0" d="M30.2,124.4H16.2c-0.9,0-1.6-0.6-1.6-1.6V107c0-0.9,0.6-1.6,1.6-1.6h13.9c0.9,0,1.6,0.6,1.6,1.6v15.8
	C31.7,123.7,30.9,124.4,30.2,124.4z M17.8,121.2h10.8v-12.7H17.8V121.2z M55.8,124.4H41.9c-0.9,0-1.6-0.6-1.6-1.6V107
	c0-0.9,0.6-1.6,1.6-1.6h13.9c0.9,0,1.6,0.6,1.6,1.6v15.8C57.3,123.7,56.6,124.4,55.8,124.4z M43.4,121.2h10.8v-12.7H43.4V121.2z
	 M81.4,124.4H67.5c-0.9,0-1.6-0.6-1.6-1.6V107c0-0.9,0.6-1.6,1.6-1.6h13.9c0.9,0,1.6,0.6,1.6,1.6v15.8
	C83,123.7,82.2,124.4,81.4,124.4z M69.1,121.2h10.8v-12.7H69.1V121.2z M106.9,124.4H93c-0.9,0-1.6-0.6-1.6-1.6V107
	c0-0.9,0.6-1.6,1.6-1.6h13.9c0.9,0,1.6,0.6,1.6,1.6v15.8C108.4,123.7,107.8,124.4,106.9,124.4z M94.7,121.2h10.8v-12.7H94.7
	C94.7,108.6,94.7,121.2,94.7,121.2z M132.5,124.4h-13.9c-0.9,0-1.6-0.6-1.6-1.6V107c0-0.9,0.6-1.6,1.6-1.6h13.9
	c0.9,0,1.6,0.6,1.6,1.6v15.8C134.1,123.7,133.4,124.4,132.5,124.4z M120.2,121.2h10.8v-12.7h-10.8V121.2z M158.1,124.4h-13.9
	c-0.9,0-1.6-0.6-1.6-1.6V107c0-0.9,0.6-1.6,1.6-1.6h13.9c0.9,0,1.6,0.6,1.6,1.6v15.8C159.7,123.7,158.9,124.4,158.1,124.4z
	 M145.8,121.2h10.8v-12.7h-10.8V121.2z M183.8,124.4h-13.9c-0.9,0-1.6-0.6-1.6-1.6V107c0-0.9,0.6-1.6,1.6-1.6h13.9
	c0.9,0,1.6,0.6,1.6,1.6v15.8C185.3,123.7,184.5,124.4,183.8,124.4z M171.4,121.2h10.8v-12.7h-10.8V121.2z M30.2,151.6H16.2
	c-0.9,0-1.6-0.6-1.6-1.6v-15.8c0-0.9,0.6-1.6,1.6-1.6h13.9c0.9,0,1.6,0.6,1.6,1.6V150C31.7,150.9,30.9,151.6,30.2,151.6z
	 M17.8,148.4h10.8v-12.7H17.8V148.4z M55.8,151.6H41.9c-0.9,0-1.6-0.6-1.6-1.6v-15.8c0-0.9,0.6-1.6,1.6-1.6h13.9
	c0.9,0,1.6,0.6,1.6,1.6V150C57.3,150.9,56.6,151.6,55.8,151.6z M43.4,148.4h10.8v-12.7H43.4V148.4z M81.4,151.6H67.5
	c-0.9,0-1.6-0.6-1.6-1.6v-15.8c0-0.9,0.6-1.6,1.6-1.6h13.9c0.9,0,1.6,0.6,1.6,1.6V150C83,150.9,82.2,151.6,81.4,151.6z M69.1,148.4
	h10.8v-12.7H69.1V148.4z M106.9,151.6H93c-0.9,0-1.6-0.6-1.6-1.6v-15.8c0-0.9,0.6-1.6,1.6-1.6h13.9c0.9,0,1.6,0.6,1.6,1.6V150
	C108.4,150.9,107.8,151.6,106.9,151.6z M94.7,148.4h10.8v-12.7H94.7C94.7,135.8,94.7,148.4,94.7,148.4z M132.5,151.6h-13.9
	c-0.9,0-1.6-0.6-1.6-1.6v-15.8c0-0.9,0.6-1.6,1.6-1.6h13.9c0.9,0,1.6,0.6,1.6,1.6V150C134.1,150.9,133.4,151.6,132.5,151.6z
	 M120.2,148.4h10.8v-12.7h-10.8V148.4z M158.1,151.6h-13.9c-0.9,0-1.6-0.6-1.6-1.6v-15.8c0-0.9,0.6-1.6,1.6-1.6h13.9
	c0.9,0,1.6,0.6,1.6,1.6V150C159.7,150.9,158.9,151.6,158.1,151.6z M145.8,148.4h10.8v-12.7h-10.8V148.4z M30.2,178.9H16.2
	c-0.9,0-1.6-0.6-1.6-1.6v-15.8c0-0.9,0.6-1.6,1.6-1.6h13.9c0.9,0,1.6,0.6,1.6,1.6v15.8C31.7,178.1,30.9,178.9,30.2,178.9z
	 M17.8,175.8h10.8v-12.7H17.8V175.8z M132.5,178.9H41.9c-0.9,0-1.6-0.6-1.6-1.6v-15.8c0-0.9,0.6-1.6,1.6-1.6h90.6
	c0.9,0,1.6,0.6,1.6,1.6v15.8C134.1,178.1,133.4,178.9,132.5,178.9z M43.4,175.8h87.5v-12.7H43.4V175.8z M158.1,178.9h-13.9
	c-0.9,0-1.6-0.6-1.6-1.6v-15.8c0-0.9,0.6-1.6,1.6-1.6h13.9c0.9,0,1.6,0.6,1.6,1.6v15.8C159.7,178.1,158.9,178.9,158.1,178.9z
	 M145.8,175.8h10.8v-12.7h-10.8V175.8z M183.8,178.9h-13.9c-0.9,0-1.6-0.6-1.6-1.6v-43.1c0-0.9,0.6-1.6,1.6-1.6h13.9
	c0.9,0,1.6,0.6,1.6,1.6v43C185.3,178.1,184.5,178.9,183.8,178.9z M171.4,175.8h10.8v-40h-10.8V175.8z M98.9,97.2
	c-1.7,0-3.1-1.4-3.1-3.1V74.7c0-13.1,10.6-23.9,23.9-23.9h54.5c10.5,0,18.9-8.4,18.9-18.9S184.7,13,174.2,13H65.3
	c-1.7,0-3.1-1.4-3.1-3.1s1.4-3.1,3.1-3.1h108.7c13.9,0,25.2,11.2,25.2,25.2S188,57,174.1,57h-54.5c-9.7,0-17.7,7.8-17.7,17.7v19.4
	C102,95.8,100.6,97.2,98.9,97.2z"/>
</svg>
